<mxfile host="app.diagrams.net" modified="2024-02-23T02:33:02.802Z" agent="Mozilla/5.0 (Windows NT 10.0; Win64; x64) AppleWebKit/537.36 (KHTML, like Gecko) Chrome/121.0.0.0 Safari/537.36" etag="HCwvGCpMz9wkhIwzV2kr" version="23.1.6" type="device">
  <diagram name="Página-1" id="Ws-UUNfim21366O0p8_O">
    <mxGraphModel dx="1434" dy="792" grid="1" gridSize="10" guides="1" tooltips="1" connect="1" arrows="1" fold="1" page="1" pageScale="1" pageWidth="827" pageHeight="1169" math="0" shadow="0">
      <root>
        <mxCell id="0" />
        <mxCell id="1" parent="0" />
        <mxCell id="ZHDpvRJnMsKm5FjTTrim-8" value="" style="edgeStyle=orthogonalEdgeStyle;rounded=0;orthogonalLoop=1;jettySize=auto;html=1;" edge="1" parent="1" source="ZHDpvRJnMsKm5FjTTrim-1" target="ZHDpvRJnMsKm5FjTTrim-2">
          <mxGeometry relative="1" as="geometry" />
        </mxCell>
        <mxCell id="ZHDpvRJnMsKm5FjTTrim-1" value="&lt;font color=&quot;#000000&quot;&gt;Inicio&lt;/font&gt;" style="ellipse;whiteSpace=wrap;html=1;fillColor=#1ba1e2;strokeColor=#006EAF;fontColor=#ffffff;" vertex="1" parent="1">
          <mxGeometry x="40" y="270" width="120" height="80" as="geometry" />
        </mxCell>
        <mxCell id="ZHDpvRJnMsKm5FjTTrim-10" value="" style="edgeStyle=orthogonalEdgeStyle;rounded=0;orthogonalLoop=1;jettySize=auto;html=1;" edge="1" parent="1" source="ZHDpvRJnMsKm5FjTTrim-2" target="ZHDpvRJnMsKm5FjTTrim-4">
          <mxGeometry relative="1" as="geometry" />
        </mxCell>
        <mxCell id="ZHDpvRJnMsKm5FjTTrim-2" value="Leer num1" style="shape=parallelogram;perimeter=parallelogramPerimeter;whiteSpace=wrap;html=1;fixedSize=1;fillColor=#60a917;fontColor=#ffffff;strokeColor=#2D7600;" vertex="1" parent="1">
          <mxGeometry x="40" y="400" width="120" height="60" as="geometry" />
        </mxCell>
        <mxCell id="ZHDpvRJnMsKm5FjTTrim-3" value="&lt;span role=&quot;presentation&quot; dir=&quot;ltr&quot; style=&quot;padding: 0px; margin: 0px; color: rgba(0, 0, 0, 0); position: absolute; cursor: text; transform-origin: 0% 0%; font-style: normal; font-variant-ligatures: normal; font-variant-caps: normal; font-weight: 400; letter-spacing: normal; orphans: 2; text-align: start; text-indent: 0px; text-transform: none; widows: 2; word-spacing: 0px; -webkit-text-stroke-width: 0px; background-color: rgb(255, 255, 255); text-decoration-thickness: initial; text-decoration-style: initial; text-decoration-color: initial; left: 162.198px; top: 166.185px; font-size: 27.3285px; font-family: sans-serif; transform: scaleX(0.990072);&quot;&gt;Desafío &lt;/span&gt;&lt;span role=&quot;presentation&quot; dir=&quot;ltr&quot; style=&quot;padding: 0px; margin: 0px; color: rgba(0, 0, 0, 0); position: absolute; cursor: text; transform-origin: 0% 0%; font-style: normal; font-variant-ligatures: normal; font-variant-caps: normal; font-weight: 400; letter-spacing: normal; orphans: 2; text-align: start; text-indent: 0px; text-transform: none; widows: 2; word-spacing: 0px; -webkit-text-stroke-width: 0px; background-color: rgb(255, 255, 255); text-decoration-thickness: initial; text-decoration-style: initial; text-decoration-color: initial; left: 262.88px; top: 166.185px; font-size: 27.3285px; font-family: sans-serif;&quot;&gt;-&lt;/span&gt;&lt;span role=&quot;presentation&quot; dir=&quot;ltr&quot; style=&quot;padding: 0px; margin: 0px; color: rgba(0, 0, 0, 0); position: absolute; cursor: text; transform-origin: 0% 0%; font-style: normal; font-variant-ligatures: normal; font-variant-caps: normal; font-weight: 400; letter-spacing: normal; orphans: 2; text-align: start; text-indent: 0px; text-transform: none; widows: 2; word-spacing: 0px; -webkit-text-stroke-width: 0px; background-color: rgb(255, 255, 255); text-decoration-thickness: initial; text-decoration-style: initial; text-decoration-color: initial; left: 273.517px; top: 166.185px; font-size: 27.3285px; font-family: sans-serif;&quot;&gt; &lt;/span&gt;&lt;span role=&quot;presentation&quot; dir=&quot;ltr&quot; style=&quot;padding: 0px; margin: 0px; color: rgba(0, 0, 0, 0); position: absolute; cursor: text; transform-origin: 0% 0%; font-style: normal; font-variant-ligatures: normal; font-variant-caps: normal; font-weight: 400; letter-spacing: normal; orphans: 2; text-align: start; text-indent: 0px; text-transform: none; widows: 2; word-spacing: 0px; -webkit-text-stroke-width: 0px; background-color: rgb(255, 255, 255); text-decoration-thickness: initial; text-decoration-style: initial; text-decoration-color: initial; left: 280.226px; top: 166.185px; font-size: 27.3285px; font-family: sans-serif; transform: scaleX(0.995193);&quot;&gt;Uso de variables y operadores &lt;/span&gt;&lt;br role=&quot;presentation&quot; style=&quot;padding: 0px; margin: 0px; color: rgba(0, 0, 0, 0); position: absolute; cursor: text; transform-origin: 0% 0%; font-family: Arial; font-size: 16px; font-style: normal; font-variant-ligatures: normal; font-variant-caps: normal; font-weight: 400; letter-spacing: normal; orphans: 2; text-align: start; text-indent: 0px; text-transform: none; widows: 2; word-spacing: 0px; -webkit-text-stroke-width: 0px; background-color: rgb(255, 255, 255); text-decoration-thickness: initial; text-decoration-style: initial; text-decoration-color: initial;&quot;&gt;&lt;span role=&quot;presentation&quot; dir=&quot;ltr&quot; style=&quot;padding: 0px; margin: 0px; color: rgba(0, 0, 0, 0); position: absolute; cursor: text; transform-origin: 0% 0%; font-style: normal; font-variant-ligatures: normal; font-variant-caps: normal; font-weight: 400; letter-spacing: normal; orphans: 2; text-align: start; text-indent: 0px; text-transform: none; widows: 2; word-spacing: 0px; -webkit-text-stroke-width: 0px; background-color: rgb(255, 255, 255); text-decoration-thickness: initial; text-decoration-style: initial; text-decoration-color: initial; left: 336.356px; top: 203.66px; font-size: 27.3285px; font-family: sans-serif; transform: scaleX(1.05691);&quot;&gt;aritméticos&lt;/span&gt;&lt;br class=&quot;Apple-interchange-newline&quot;&gt;" style="text;whiteSpace=wrap;html=1;" vertex="1" parent="1">
          <mxGeometry x="520" y="620" width="30" height="50" as="geometry" />
        </mxCell>
        <mxCell id="ZHDpvRJnMsKm5FjTTrim-11" value="" style="edgeStyle=orthogonalEdgeStyle;rounded=0;orthogonalLoop=1;jettySize=auto;html=1;" edge="1" parent="1" source="ZHDpvRJnMsKm5FjTTrim-4" target="ZHDpvRJnMsKm5FjTTrim-5">
          <mxGeometry relative="1" as="geometry" />
        </mxCell>
        <mxCell id="ZHDpvRJnMsKm5FjTTrim-4" value="Leer num2" style="shape=parallelogram;perimeter=parallelogramPerimeter;whiteSpace=wrap;html=1;fixedSize=1;fillColor=#60a917;fontColor=#ffffff;strokeColor=#2D7600;" vertex="1" parent="1">
          <mxGeometry x="40" y="500" width="120" height="60" as="geometry" />
        </mxCell>
        <mxCell id="ZHDpvRJnMsKm5FjTTrim-12" value="" style="edgeStyle=orthogonalEdgeStyle;rounded=0;orthogonalLoop=1;jettySize=auto;html=1;" edge="1" parent="1" source="ZHDpvRJnMsKm5FjTTrim-5" target="ZHDpvRJnMsKm5FjTTrim-6">
          <mxGeometry relative="1" as="geometry" />
        </mxCell>
        <mxCell id="ZHDpvRJnMsKm5FjTTrim-5" value="num1 + num2" style="rounded=0;whiteSpace=wrap;html=1;fillColor=#fa6800;fontColor=#000000;strokeColor=#C73500;" vertex="1" parent="1">
          <mxGeometry x="40" y="585" width="120" height="60" as="geometry" />
        </mxCell>
        <mxCell id="ZHDpvRJnMsKm5FjTTrim-14" value="" style="edgeStyle=orthogonalEdgeStyle;rounded=0;orthogonalLoop=1;jettySize=auto;html=1;" edge="1" parent="1" source="ZHDpvRJnMsKm5FjTTrim-6" target="ZHDpvRJnMsKm5FjTTrim-13">
          <mxGeometry relative="1" as="geometry" />
        </mxCell>
        <mxCell id="ZHDpvRJnMsKm5FjTTrim-6" value="Mostrar Suma" style="shape=parallelogram;perimeter=parallelogramPerimeter;whiteSpace=wrap;html=1;fixedSize=1;fillColor=#60a917;fontColor=#ffffff;strokeColor=#2D7600;" vertex="1" parent="1">
          <mxGeometry x="40" y="680" width="120" height="60" as="geometry" />
        </mxCell>
        <mxCell id="ZHDpvRJnMsKm5FjTTrim-13" value="&lt;font color=&quot;#000000&quot;&gt;Fin&lt;/font&gt;" style="ellipse;whiteSpace=wrap;html=1;fillColor=#1ba1e2;fontColor=#ffffff;strokeColor=#006EAF;" vertex="1" parent="1">
          <mxGeometry x="40" y="780" width="120" height="80" as="geometry" />
        </mxCell>
        <mxCell id="ZHDpvRJnMsKm5FjTTrim-15" value="Suma" style="rounded=1;whiteSpace=wrap;html=1;fillColor=#647687;fontColor=#ffffff;strokeColor=#314354;" vertex="1" parent="1">
          <mxGeometry x="40" y="190" width="120" height="60" as="geometry" />
        </mxCell>
        <mxCell id="ZHDpvRJnMsKm5FjTTrim-16" value="" style="edgeStyle=orthogonalEdgeStyle;rounded=0;orthogonalLoop=1;jettySize=auto;html=1;" edge="1" parent="1" source="ZHDpvRJnMsKm5FjTTrim-17" target="ZHDpvRJnMsKm5FjTTrim-19">
          <mxGeometry relative="1" as="geometry" />
        </mxCell>
        <mxCell id="ZHDpvRJnMsKm5FjTTrim-17" value="&lt;font color=&quot;#000000&quot;&gt;Inicio&lt;/font&gt;" style="ellipse;whiteSpace=wrap;html=1;fillColor=#1ba1e2;fontColor=#ffffff;strokeColor=#006EAF;" vertex="1" parent="1">
          <mxGeometry x="180" y="270" width="120" height="80" as="geometry" />
        </mxCell>
        <mxCell id="ZHDpvRJnMsKm5FjTTrim-18" value="" style="edgeStyle=orthogonalEdgeStyle;rounded=0;orthogonalLoop=1;jettySize=auto;html=1;" edge="1" parent="1" source="ZHDpvRJnMsKm5FjTTrim-19" target="ZHDpvRJnMsKm5FjTTrim-21">
          <mxGeometry relative="1" as="geometry" />
        </mxCell>
        <mxCell id="ZHDpvRJnMsKm5FjTTrim-19" value="Leer num1" style="shape=parallelogram;perimeter=parallelogramPerimeter;whiteSpace=wrap;html=1;fixedSize=1;fillColor=#60a917;fontColor=#ffffff;strokeColor=#2D7600;" vertex="1" parent="1">
          <mxGeometry x="180" y="400" width="120" height="60" as="geometry" />
        </mxCell>
        <mxCell id="ZHDpvRJnMsKm5FjTTrim-20" value="" style="edgeStyle=orthogonalEdgeStyle;rounded=0;orthogonalLoop=1;jettySize=auto;html=1;" edge="1" parent="1" source="ZHDpvRJnMsKm5FjTTrim-21" target="ZHDpvRJnMsKm5FjTTrim-23">
          <mxGeometry relative="1" as="geometry" />
        </mxCell>
        <mxCell id="ZHDpvRJnMsKm5FjTTrim-21" value="Leer num2" style="shape=parallelogram;perimeter=parallelogramPerimeter;whiteSpace=wrap;html=1;fixedSize=1;fillColor=#60a917;fontColor=#ffffff;strokeColor=#2D7600;" vertex="1" parent="1">
          <mxGeometry x="180" y="500" width="120" height="60" as="geometry" />
        </mxCell>
        <mxCell id="ZHDpvRJnMsKm5FjTTrim-22" value="" style="edgeStyle=orthogonalEdgeStyle;rounded=0;orthogonalLoop=1;jettySize=auto;html=1;" edge="1" parent="1" source="ZHDpvRJnMsKm5FjTTrim-23" target="ZHDpvRJnMsKm5FjTTrim-25">
          <mxGeometry relative="1" as="geometry" />
        </mxCell>
        <mxCell id="ZHDpvRJnMsKm5FjTTrim-23" value="num1 - num2" style="rounded=0;whiteSpace=wrap;html=1;fillColor=#fa6800;fontColor=#000000;strokeColor=#C73500;" vertex="1" parent="1">
          <mxGeometry x="180" y="585" width="120" height="60" as="geometry" />
        </mxCell>
        <mxCell id="ZHDpvRJnMsKm5FjTTrim-24" value="" style="edgeStyle=orthogonalEdgeStyle;rounded=0;orthogonalLoop=1;jettySize=auto;html=1;" edge="1" parent="1" source="ZHDpvRJnMsKm5FjTTrim-25" target="ZHDpvRJnMsKm5FjTTrim-26">
          <mxGeometry relative="1" as="geometry" />
        </mxCell>
        <mxCell id="ZHDpvRJnMsKm5FjTTrim-25" value="Mostrar Resta" style="shape=parallelogram;perimeter=parallelogramPerimeter;whiteSpace=wrap;html=1;fixedSize=1;fillColor=#60a917;fontColor=#ffffff;strokeColor=#2D7600;" vertex="1" parent="1">
          <mxGeometry x="180" y="680" width="120" height="60" as="geometry" />
        </mxCell>
        <mxCell id="ZHDpvRJnMsKm5FjTTrim-26" value="&lt;font color=&quot;#000000&quot;&gt;Fin&lt;/font&gt;" style="ellipse;whiteSpace=wrap;html=1;fillColor=#1ba1e2;fontColor=#ffffff;strokeColor=#006EAF;" vertex="1" parent="1">
          <mxGeometry x="180" y="780" width="120" height="80" as="geometry" />
        </mxCell>
        <mxCell id="ZHDpvRJnMsKm5FjTTrim-27" value="Resta" style="rounded=1;whiteSpace=wrap;html=1;fillColor=#647687;fontColor=#ffffff;strokeColor=#314354;" vertex="1" parent="1">
          <mxGeometry x="180" y="190" width="120" height="60" as="geometry" />
        </mxCell>
        <mxCell id="ZHDpvRJnMsKm5FjTTrim-28" value="" style="edgeStyle=orthogonalEdgeStyle;rounded=0;orthogonalLoop=1;jettySize=auto;html=1;" edge="1" parent="1" source="ZHDpvRJnMsKm5FjTTrim-29" target="ZHDpvRJnMsKm5FjTTrim-31">
          <mxGeometry relative="1" as="geometry" />
        </mxCell>
        <mxCell id="ZHDpvRJnMsKm5FjTTrim-29" value="&lt;p style=&quot;line-height: 120%;&quot;&gt;&lt;font color=&quot;#000000&quot;&gt;Inicio&lt;/font&gt;&lt;/p&gt;" style="ellipse;whiteSpace=wrap;html=1;fillColor=#1ba1e2;fontColor=#ffffff;strokeColor=#006EAF;" vertex="1" parent="1">
          <mxGeometry x="320" y="270" width="120" height="80" as="geometry" />
        </mxCell>
        <mxCell id="ZHDpvRJnMsKm5FjTTrim-30" value="" style="edgeStyle=orthogonalEdgeStyle;rounded=0;orthogonalLoop=1;jettySize=auto;html=1;" edge="1" parent="1" source="ZHDpvRJnMsKm5FjTTrim-31" target="ZHDpvRJnMsKm5FjTTrim-33">
          <mxGeometry relative="1" as="geometry" />
        </mxCell>
        <mxCell id="ZHDpvRJnMsKm5FjTTrim-31" value="Leer num1" style="shape=parallelogram;perimeter=parallelogramPerimeter;whiteSpace=wrap;html=1;fixedSize=1;fillColor=#60a917;fontColor=#ffffff;strokeColor=#2D7600;" vertex="1" parent="1">
          <mxGeometry x="320" y="400" width="120" height="60" as="geometry" />
        </mxCell>
        <mxCell id="ZHDpvRJnMsKm5FjTTrim-32" value="" style="edgeStyle=orthogonalEdgeStyle;rounded=0;orthogonalLoop=1;jettySize=auto;html=1;" edge="1" parent="1" source="ZHDpvRJnMsKm5FjTTrim-33" target="ZHDpvRJnMsKm5FjTTrim-35">
          <mxGeometry relative="1" as="geometry" />
        </mxCell>
        <mxCell id="ZHDpvRJnMsKm5FjTTrim-33" value="Leer num2" style="shape=parallelogram;perimeter=parallelogramPerimeter;whiteSpace=wrap;html=1;fixedSize=1;fillColor=#60a917;fontColor=#ffffff;strokeColor=#2D7600;" vertex="1" parent="1">
          <mxGeometry x="320" y="500" width="120" height="60" as="geometry" />
        </mxCell>
        <mxCell id="ZHDpvRJnMsKm5FjTTrim-34" value="" style="edgeStyle=orthogonalEdgeStyle;rounded=0;orthogonalLoop=1;jettySize=auto;html=1;" edge="1" parent="1" source="ZHDpvRJnMsKm5FjTTrim-35" target="ZHDpvRJnMsKm5FjTTrim-37">
          <mxGeometry relative="1" as="geometry" />
        </mxCell>
        <mxCell id="ZHDpvRJnMsKm5FjTTrim-35" value="num1 / num2" style="rounded=0;whiteSpace=wrap;html=1;fillColor=#fa6800;fontColor=#000000;strokeColor=#C73500;" vertex="1" parent="1">
          <mxGeometry x="320" y="585" width="120" height="60" as="geometry" />
        </mxCell>
        <mxCell id="ZHDpvRJnMsKm5FjTTrim-36" value="" style="edgeStyle=orthogonalEdgeStyle;rounded=0;orthogonalLoop=1;jettySize=auto;html=1;" edge="1" parent="1" source="ZHDpvRJnMsKm5FjTTrim-37" target="ZHDpvRJnMsKm5FjTTrim-38">
          <mxGeometry relative="1" as="geometry" />
        </mxCell>
        <mxCell id="ZHDpvRJnMsKm5FjTTrim-37" value="Mostrar Division" style="shape=parallelogram;perimeter=parallelogramPerimeter;whiteSpace=wrap;html=1;fixedSize=1;fillColor=#60a917;fontColor=#ffffff;strokeColor=#2D7600;" vertex="1" parent="1">
          <mxGeometry x="320" y="680" width="120" height="60" as="geometry" />
        </mxCell>
        <mxCell id="ZHDpvRJnMsKm5FjTTrim-38" value="&lt;font color=&quot;#000000&quot;&gt;Fin&lt;/font&gt;" style="ellipse;whiteSpace=wrap;html=1;fillColor=#1ba1e2;fontColor=#ffffff;strokeColor=#006EAF;" vertex="1" parent="1">
          <mxGeometry x="320" y="780" width="120" height="80" as="geometry" />
        </mxCell>
        <mxCell id="ZHDpvRJnMsKm5FjTTrim-39" value="Division" style="rounded=1;whiteSpace=wrap;html=1;fillColor=#647687;fontColor=#ffffff;strokeColor=#314354;" vertex="1" parent="1">
          <mxGeometry x="320" y="190" width="120" height="60" as="geometry" />
        </mxCell>
        <mxCell id="ZHDpvRJnMsKm5FjTTrim-40" value="" style="edgeStyle=orthogonalEdgeStyle;rounded=0;orthogonalLoop=1;jettySize=auto;html=1;" edge="1" parent="1" source="ZHDpvRJnMsKm5FjTTrim-41" target="ZHDpvRJnMsKm5FjTTrim-43">
          <mxGeometry relative="1" as="geometry" />
        </mxCell>
        <mxCell id="ZHDpvRJnMsKm5FjTTrim-41" value="&lt;font color=&quot;#000000&quot;&gt;Inicio&lt;/font&gt;" style="ellipse;whiteSpace=wrap;html=1;fillColor=#1ba1e2;fontColor=#ffffff;strokeColor=#006EAF;" vertex="1" parent="1">
          <mxGeometry x="460" y="270" width="120" height="80" as="geometry" />
        </mxCell>
        <mxCell id="ZHDpvRJnMsKm5FjTTrim-42" value="" style="edgeStyle=orthogonalEdgeStyle;rounded=0;orthogonalLoop=1;jettySize=auto;html=1;" edge="1" parent="1" source="ZHDpvRJnMsKm5FjTTrim-43" target="ZHDpvRJnMsKm5FjTTrim-45">
          <mxGeometry relative="1" as="geometry" />
        </mxCell>
        <mxCell id="ZHDpvRJnMsKm5FjTTrim-43" value="Leer num1" style="shape=parallelogram;perimeter=parallelogramPerimeter;whiteSpace=wrap;html=1;fixedSize=1;fillColor=#60a917;fontColor=#ffffff;strokeColor=#2D7600;" vertex="1" parent="1">
          <mxGeometry x="460" y="400" width="120" height="60" as="geometry" />
        </mxCell>
        <mxCell id="ZHDpvRJnMsKm5FjTTrim-44" value="" style="edgeStyle=orthogonalEdgeStyle;rounded=0;orthogonalLoop=1;jettySize=auto;html=1;" edge="1" parent="1" source="ZHDpvRJnMsKm5FjTTrim-45" target="ZHDpvRJnMsKm5FjTTrim-47">
          <mxGeometry relative="1" as="geometry" />
        </mxCell>
        <mxCell id="ZHDpvRJnMsKm5FjTTrim-45" value="Leer num2" style="shape=parallelogram;perimeter=parallelogramPerimeter;whiteSpace=wrap;html=1;fixedSize=1;fillColor=#60a917;fontColor=#ffffff;strokeColor=#2D7600;" vertex="1" parent="1">
          <mxGeometry x="460" y="500" width="120" height="60" as="geometry" />
        </mxCell>
        <mxCell id="ZHDpvRJnMsKm5FjTTrim-46" value="" style="edgeStyle=orthogonalEdgeStyle;rounded=0;orthogonalLoop=1;jettySize=auto;html=1;" edge="1" parent="1" source="ZHDpvRJnMsKm5FjTTrim-47" target="ZHDpvRJnMsKm5FjTTrim-49">
          <mxGeometry relative="1" as="geometry" />
        </mxCell>
        <mxCell id="ZHDpvRJnMsKm5FjTTrim-47" value="num1 * num2" style="rounded=0;whiteSpace=wrap;html=1;fillColor=#fa6800;fontColor=#000000;strokeColor=#C73500;" vertex="1" parent="1">
          <mxGeometry x="460" y="585" width="120" height="60" as="geometry" />
        </mxCell>
        <mxCell id="ZHDpvRJnMsKm5FjTTrim-48" value="" style="edgeStyle=orthogonalEdgeStyle;rounded=0;orthogonalLoop=1;jettySize=auto;html=1;" edge="1" parent="1" source="ZHDpvRJnMsKm5FjTTrim-49" target="ZHDpvRJnMsKm5FjTTrim-50">
          <mxGeometry relative="1" as="geometry" />
        </mxCell>
        <mxCell id="ZHDpvRJnMsKm5FjTTrim-49" value="Mostrar &lt;br&gt;Multiplicacion" style="shape=parallelogram;perimeter=parallelogramPerimeter;whiteSpace=wrap;html=1;fixedSize=1;fillColor=#60a917;fontColor=#ffffff;strokeColor=#2D7600;" vertex="1" parent="1">
          <mxGeometry x="460" y="680" width="120" height="60" as="geometry" />
        </mxCell>
        <mxCell id="ZHDpvRJnMsKm5FjTTrim-50" value="&lt;font color=&quot;#000000&quot;&gt;Fin&lt;/font&gt;" style="ellipse;whiteSpace=wrap;html=1;fillColor=#1ba1e2;fontColor=#ffffff;strokeColor=#006EAF;" vertex="1" parent="1">
          <mxGeometry x="460" y="780" width="120" height="80" as="geometry" />
        </mxCell>
        <mxCell id="ZHDpvRJnMsKm5FjTTrim-51" value="Multiplicacion" style="rounded=1;whiteSpace=wrap;html=1;fillColor=#647687;fontColor=#ffffff;strokeColor=#314354;" vertex="1" parent="1">
          <mxGeometry x="460" y="190" width="120" height="60" as="geometry" />
        </mxCell>
        <mxCell id="ZHDpvRJnMsKm5FjTTrim-52" value="" style="edgeStyle=orthogonalEdgeStyle;rounded=0;orthogonalLoop=1;jettySize=auto;html=1;" edge="1" parent="1" source="ZHDpvRJnMsKm5FjTTrim-53" target="ZHDpvRJnMsKm5FjTTrim-55">
          <mxGeometry relative="1" as="geometry" />
        </mxCell>
        <mxCell id="ZHDpvRJnMsKm5FjTTrim-53" value="&lt;font color=&quot;#000000&quot;&gt;Inicio&lt;/font&gt;" style="ellipse;whiteSpace=wrap;html=1;fillColor=#1ba1e2;fontColor=#ffffff;strokeColor=#006EAF;" vertex="1" parent="1">
          <mxGeometry x="600" y="270" width="120" height="80" as="geometry" />
        </mxCell>
        <mxCell id="ZHDpvRJnMsKm5FjTTrim-54" value="" style="edgeStyle=orthogonalEdgeStyle;rounded=0;orthogonalLoop=1;jettySize=auto;html=1;" edge="1" parent="1" source="ZHDpvRJnMsKm5FjTTrim-55" target="ZHDpvRJnMsKm5FjTTrim-57">
          <mxGeometry relative="1" as="geometry" />
        </mxCell>
        <mxCell id="ZHDpvRJnMsKm5FjTTrim-55" value="Leer num1" style="shape=parallelogram;perimeter=parallelogramPerimeter;whiteSpace=wrap;html=1;fixedSize=1;fillColor=#60a917;fontColor=#ffffff;strokeColor=#2D7600;" vertex="1" parent="1">
          <mxGeometry x="600" y="400" width="120" height="60" as="geometry" />
        </mxCell>
        <mxCell id="ZHDpvRJnMsKm5FjTTrim-56" value="" style="edgeStyle=orthogonalEdgeStyle;rounded=0;orthogonalLoop=1;jettySize=auto;html=1;" edge="1" parent="1" source="ZHDpvRJnMsKm5FjTTrim-57" target="ZHDpvRJnMsKm5FjTTrim-59">
          <mxGeometry relative="1" as="geometry" />
        </mxCell>
        <mxCell id="ZHDpvRJnMsKm5FjTTrim-57" value="Leer num2" style="shape=parallelogram;perimeter=parallelogramPerimeter;whiteSpace=wrap;html=1;fixedSize=1;fillColor=#60a917;fontColor=#ffffff;strokeColor=#2D7600;" vertex="1" parent="1">
          <mxGeometry x="600" y="500" width="120" height="60" as="geometry" />
        </mxCell>
        <mxCell id="ZHDpvRJnMsKm5FjTTrim-58" value="" style="edgeStyle=orthogonalEdgeStyle;rounded=0;orthogonalLoop=1;jettySize=auto;html=1;" edge="1" parent="1" source="ZHDpvRJnMsKm5FjTTrim-59" target="ZHDpvRJnMsKm5FjTTrim-61">
          <mxGeometry relative="1" as="geometry" />
        </mxCell>
        <mxCell id="ZHDpvRJnMsKm5FjTTrim-59" value="num1 % num2" style="rounded=0;whiteSpace=wrap;html=1;fillColor=#fa6800;fontColor=#000000;strokeColor=#C73500;" vertex="1" parent="1">
          <mxGeometry x="600" y="585" width="120" height="60" as="geometry" />
        </mxCell>
        <mxCell id="ZHDpvRJnMsKm5FjTTrim-60" value="" style="edgeStyle=orthogonalEdgeStyle;rounded=0;orthogonalLoop=1;jettySize=auto;html=1;" edge="1" parent="1" source="ZHDpvRJnMsKm5FjTTrim-61" target="ZHDpvRJnMsKm5FjTTrim-62">
          <mxGeometry relative="1" as="geometry" />
        </mxCell>
        <mxCell id="ZHDpvRJnMsKm5FjTTrim-61" value="Mostrar Modulo" style="shape=parallelogram;perimeter=parallelogramPerimeter;whiteSpace=wrap;html=1;fixedSize=1;fillColor=#60a917;fontColor=#ffffff;strokeColor=#2D7600;" vertex="1" parent="1">
          <mxGeometry x="600" y="680" width="120" height="60" as="geometry" />
        </mxCell>
        <mxCell id="ZHDpvRJnMsKm5FjTTrim-62" value="&lt;font color=&quot;#000000&quot;&gt;Fin&lt;/font&gt;" style="ellipse;whiteSpace=wrap;html=1;fillColor=#1ba1e2;fontColor=#ffffff;strokeColor=#006EAF;" vertex="1" parent="1">
          <mxGeometry x="600" y="780" width="120" height="80" as="geometry" />
        </mxCell>
        <mxCell id="ZHDpvRJnMsKm5FjTTrim-63" value="Modulo" style="rounded=1;whiteSpace=wrap;html=1;fillColor=#647687;fontColor=#ffffff;strokeColor=#314354;" vertex="1" parent="1">
          <mxGeometry x="600" y="190" width="120" height="60" as="geometry" />
        </mxCell>
      </root>
    </mxGraphModel>
  </diagram>
</mxfile>
